# xmcd
#
# Track frame offsets:
#	150
#	17105
#	32476
#	48713
#	63628
#	78309
#	89099
#	101779
#	120296
#	133229
#	146653
#
# Disc length: 2134 seconds
#
# Revision: 1
# Processed by: cddbd v1.5.2PL0 Copyright (c) Steve Scherf et al.
# Submitted via: audiograbber 1.83.01
#
DISCID=9c08540b
DTITLE=Various Artist - CDX 565
DYEAR=2013
DGENRE=Country
TTITLE0=Sheryl Crow - Easy
TTITLE1=Drake White - The Simple Life
TTITLE2=JB And The Moonshine Band - The Only Drug
TTITLE3=Julie Ingram - Action Reaction
TTITLE4=Adam Wayne - Down Every Road
TTITLE5=Shanna Strassberg - Has Anybody Seen My Heart
TTITLE6=Reckless Johnny Wales - Funky Monkey Blues
TTITLE7=Jackson Delaney - Shotgun Wedding
TTITLE8=Miss Jeanie - Walk A Little aster
TTITLE9=Angela Hesse - Which One Of You Boys
TTITLE10=The Wheeler Sisters - Whiskey Please
EXTD=
EXTT0=
EXTT1=
EXTT2=
EXTT3=
EXTT4=
EXTT5=
EXTT6=
EXTT7=
EXTT8=
EXTT9=
EXTT10=
PLAYORDER=
